<?xml version="1.0" encoding="utf-8"?>
<!-- Generator: Adobe Illustrator 26.0.0, SVG Export Plug-In . SVG Version: 6.00 Build 0)  -->
<svg version="1.1" id="Layer_1" xmlns="http://www.w3.org/2000/svg" xmlns:xlink="http://www.w3.org/1999/xlink" x="0px" y="0px"
	 viewBox="0 0 354.8 354.9" style="enable-background:new 0 0 354.8 354.9;" xml:space="preserve">
<style type="text/css">
	.st0{fill:#FFFFFF;stroke:#4A84FF;stroke-width:35;stroke-miterlimit:10;}
	.st1{fill:#3AAFA9;stroke:#3AAFA9;stroke-miterlimit:10;}
	.st2{fill:#FFFFFF;stroke:#FFFFFF;stroke-miterlimit:10;}
</style>
<circle class="st0" cx="177.1" cy="177.5" r="118.1"/>
<path class="st1" d="M177.4,177.4c0-0.3,0-4.6-0.2-74.2L177.4,0l-16.2,161.9L177.4,177.4L177.4,177.4z"/>
<path class="st2" d="M177.4,0v177.4l0,0l16.8-16.4L177.4,0z"/>
<path class="st2" d="M177.4,177.4V29.1l-0.2,74.2C177.4,172.9,177.4,177.2,177.4,177.4z"/>
<path class="st1" d="M177.4,177.1l-74.1,1.6L0.1,180.3l161.1,13.8L177.4,177.1L177.4,177.1L177.4,177.1z"/>
<path class="st2" d="M0.1,180.3l177.4-3.2l0,0l-16.2-15.1L0.1,180.3z"/>
<path class="st1" d="M177.4,177.5l74.2,0.5l103.2,1.2L194.2,161L177.4,177.5L177.4,177.5L177.4,177.5z"/>
<path class="st2" d="M354.7,179.2l-177.3-1.7l0,0l16.8,16.6L354.7,179.2z"/>
<path class="st1" d="M177.1,177.4c0,0.3,0,4.6,0.6,74.2l0.4,103.2l16-160.7L177.1,177.4L177.1,177.4z"/>
<path class="st2" d="M178.1,354.8l-1-177.4l0,0l-16,16.7L178.1,354.8z"/>
</svg>
